/* XPM */
static char *_484090439102[] = {
/* columns rows colors chars-per-pixel */
"80 80 5 1 ",
"  c #424D38",
". c #424D3A",
"X c #484B39",
"o c #384646",
"O c #3A4844",
/* pixels */
"    ...................................  ...................................... ",
" OOoOooOOoOooOOoOooOOoOooOOoOooOOoOooOO..OoOOoOooOOoOooOOoOooOOoOooOOoOooOOoOoO.",
".Oooooooooooooooooooooooooooooooooooooo..Oooooooooooooooooooooooooooooooooooooo.",
".oooooooooooooooooooooooooooooooooooooO..oooooooooooooooooooooooooooooooooooooO.",
".oooooooooooooooooooooooooooooooooooooo..OooooooooooooooooooooooooooooooooooooO.",
".OooooooooooooooooooooooooooooooooooooO..oooooooooooooooooooooooooooooooooooooo.",
".Oooooooooooooooooooooooooooooooooooooo..Oooooooooooooooooooooooooooooooooooooo.",
".oooooooooooooooooooooooooooooooooooooO..oooooooooooooooooooooooooooooooooooooO.",
".Oooooooooooooooooooooooooooooooooooooo..Oooooooooooooooooooooooooooooooooooooo.",
".oooooooooooooooooooooooooooooooooooooO..oooooooooooooooooooooooooooooooooooooO.",
".oooooooooooooooooooooooooooooooooooooo..OooooooooooooooooooooooooooooooooooooO.",
".OooooooooooooooooooooooooooooooooooooO..oooooooooooooooooooooooooooooooooooooo.",
".OooooooooooooooooooooooooooooooooooooO..oooooooooooooooooooooooooooooooooooooo.",
".oooooooooooooooooooooooooooooooooooooo..OooooooooooooooooooooooooooooooooooooO.",
".Oooooooooooooooooooooooooooooooooooooo..Oooooooooooooooooooooooooooooooooooooo.",
".oooooooooooooooooooooooooooooooooooooO..oooooooooooooooooooooooooooooooooooooO.",
".oooooooooooooooooooooooooooooooooooooo..Oooooooooooooooooooooooooooooooooooooo.",
".OooooooooooooooooooooooooooooooooooooO..oooooooooooooooooooooooooooooooooooooO.",
".OooooooooooooooooooooooooooooooooooooO..oooooooooooooooooooooooooooooooooooooo.",
".oooooooooooooooooooooooooooooooooooooo..OooooooooooooooooooooooooooooooooooooO.",
".Oooooooooooooooooooooooooooooooooooooo..OooooooooooooooooooooooooooooooooooooO.",
".oooooooooooooooooooooooooooooooooooooO..oooooooooooooooooooooooooooooooooooooo.",
".oooooooooooooooooooooooooooooooooooooo..Oooooooooooooooooooooooooooooooooooooo.",
".OooooooooooooooooooooooooooooooooooooO..oooooooooooooooooooooooooooooooooooooO.",
".Oooooooooooooooooooooooooooooooooooooo..Oooooooooooooooooooooooooooooooooooooo.",
".oooooooooooooooooooooooooooooooooooooO..oooooooooooooooooooooooooooooooooooooO.",
".Oooooooooooooooooooooooooooooooooooooo..OooooooooooooooooooooooooooooooooooooO.",
".oooooooooooooooooooooooooooooooooooooO..oooooooooooooooooooooooooooooooooooooo.",
".ooooooooooooooooooooooooooooooooooooooX.Oooooooooooooooooooooooooooooooooooooo.",
".OooooooooooooooooooooooooooooooooooooOX.oooooooooooooooooooooooooooooooooooooO.",
".Oooooooooooooooooooooooooooooooooooooo..Oooooooooooooooooooooooooooooooooooooo.",
".oooooooooooooooooooooooooooooooooooooO..oooooooooooooooooooooooooooooooooooooO.",
".Oooooooooooooooooooooooooooooooooooooo..Oooooooooooooooooooooooooooooooooooooo.",
".oooooooooooooooooooooooooooooooooooooO..oooooooooooooooooooooooooooooooooooooO.",
".oooooooooooooooooooooooooooooooooooooo..Oooooooooooooooooooooooooooooooooooooo.",
".OooooooooooooooooooooooooooooooooooooO..oooooooooooooooooooooooooooooooooooooO.",
".Oooooooooooooooooooooooooooooooooooooo..OooooooooooooooooooooooooooooooooooooO.",
".oooooooooooooooooooooooooooooooooooooO..oooooooooooooooooooooooooooooooooooooo.",
".OoOoOOoOooOoOOoOooOoOOoOooOoOOooOoOOoO..OOooOoOoOoOoOoOoOoOOooOoOOooOoOoOoOoOO.",
" ......................................  ...................................... ",
" ......................................  ...................................... ",
".OOooOOoOooOOoOoOoOooOOoOooOOoOooOOoOoO..OOoOooOOoOoOoOoOoOooOOoOooOOoOoOoOoOoO.",
".Oooooooooooooooooooooooooooooooooooooo..OooooooooooooooooooooooooooooooooooooO.",
".oooooooooooooooooooooooooooooooooooooO..oooooooooooooooooooooooooooooooooooooo.",
".OooooooooooooooooooooooooooooooooooooO..oooooooooooooooooooooooooooooooooooooo.",
".oooooooooooooooooooooooooooooooooooooo..OooooooooooooooooooooooooooooooooooooO.",
".oooooooooooooooooooooooooooooooooooooo..Oooooooooooooooooooooooooooooooooooooo.",
".OooooooooooooooooooooooooooooooooooooO..oooooooooooooooooooooooooooooooooooooO.",
".Oooooooooooooooooooooooooooooooooooooo..Oooooooooooooooooooooooooooooooooooooo.",
".oooooooooooooooooooooooooooooooooooooO..oooooooooooooooooooooooooooooooooooooO.",
".OooooooooooooooooooooooooooooooooooooO..oooooooooooooooooooooooooooooooooooooo.",
".oooooooooooooooooooooooooooooooooooooo..OooooooooooooooooooooooooooooooooooooO.",
".oooooooooooooooooooooooooooooooooooooo..OooooooooooooooooooooooooooooooooooooO.",
".OooooooooooooooooooooooooooooooooooooO..oooooooooooooooooooooooooooooooooooooo.",
".Oooooooooooooooooooooooooooooooooooooo..Oooooooooooooooooooooooooooooooooooooo.",
".oooooooooooooooooooooooooooooooooooooO..oooooooooooooooooooooooooooooooooooooO.",
".Oooooooooooooooooooooooooooooooooooooo..Oooooooooooooooooooooooooooooooooooooo.",
".oooooooooooooooooooooooooooooooooooooO..oooooooooooooooooooooooooooooooooooooO.",
".oooooooooooooooooooooooooooooooooooooo..OooooooooooooooooooooooooooooooooooooO.",
".OooooooooooooooooooooooooooooooooooooO..oooooooooooooooooooooooooooooooooooooo.",
".Oooooooooooooooooooooooooooooooooooooo..Oooooooooooooooooooooooooooooooooooooo.",
".oooooooooooooooooooooooooooooooooooooO..oooooooooooooooooooooooooooooooooooooO.",
".Oooooooooooooooooooooooooooooooooooooo..Oooooooooooooooooooooooooooooooooooooo.",
".oooooooooooooooooooooooooooooooooooooO..oooooooooooooooooooooooooooooooooooooO.",
".oooooooooooooooooooooooooooooooooooooO..OooooooooooooooooooooooooooooooooooooO.",
".Oooooooooooooooooooooooooooooooooooooo..oooooooooooooooooooooooooooooooooooooo.",
".Oooooooooooooooooooooooooooooooooooooo..Oooooooooooooooooooooooooooooooooooooo.",
".oooooooooooooooooooooooooooooooooooooO..oooooooooooooooooooooooooooooooooooooO.",
".Oooooooooooooooooooooooooooooooooooooo..oooooooooooooooooooooooooooooooooooooo.",
".oooooooooooooooooooooooooooooooooooooO..OooooooooooooooooooooooooooooooooooooO.",
".oooooooooooooooooooooooooooooooooooooO..OooooooooooooooooooooooooooooooooooooO.",
".Oooooooooooooooooooooooooooooooooooooo..oooooooooooooooooooooooooooooooooooooo.",
".OooooooooooooooooooooooooooooooooooooO..Oooooooooooooooooooooooooooooooooooooo.",
".oooooooooooooooooooooooooooooooooooooo..oooooooooooooooooooooooooooooooooooooO.",
".Oooooooooooooooooooooooooooooooooooooo..oooooooooooooooooooooooooooooooooooooo.",
".oooooooooooooooooooooooooooooooooooooO..OooooooooooooooooooooooooooooooooooooO.",
".oooooooooooooooooooooooooooooooooooooo..OooooooooooooooooooooooooooooooooooooO.",
".OooooooooooooooooooooooooooooooooooooO..oooooooooooooooooooooooooooooooooooooo.",
".OoOoOoOoOoOoOoOOooOoOOooOoOOooOoOOooOO..OoOoOOooOoOoOoOoOoOoOoOoOoOoOoOoOoOoOO.",
" ......................................  ...................................... "
};
